# xmcd CD database file
#
# Track frame offsets:
#	150
#	22608
#	40026
#	60659
#	78061
#	91481
#	109686
#	120001
#	135517
#	147586
#	168465
#	179738
#	193733
#	209776
#	218283
#	232375
#	253509
#
# Disc length: 3575 seconds
#
# Revision: 0
# Processed by: cddbd v1.5.1PL0 Copyright (c) Steve Scherf et al.
# Submitted via: CDex 1.51
#
DISCID=e80df511
DTITLE=Porteña Jazz Band - volumen 3
DYEAR=1900
DGENRE=Jazz
TTITLE0=Locucion-Liza
TTITLE1=Rosa Madreselva
TTITLE2=Blues Melancolico
TTITLE3=Vuelve dulce papa
TTITLE4=Tengo Ritmo
TTITLE5=La estampida
TTITLE6=El anfitrion
TTITLE7=Blues de la vereda
TTITLE8=Stomp del jubileo
TTITLE9=Dulce Georgia Brown
TTITLE10=Mama de la piel oscura
TTITLE11=El charleston es el mejor baile despues de todo
TTITLE12=Descalabro de Chicago
TTITLE13=El caminante de St. Louis Este
TTITLE14=Dama sofisticada
TTITLE15=Cuerpo y alma
TTITLE16=Barro del Mississipi
EXTD=
EXTT0=
EXTT1=
EXTT2=
EXTT3=
EXTT4=
EXTT5=
EXTT6=
EXTT7=
EXTT8=
EXTT9=
EXTT10=
EXTT11=
EXTT12=
EXTT13=
EXTT14=
EXTT15=
EXTT16=
PLAYORDER=
